<mxfile host="app.diagrams.net" agent="Mozilla/5.0 (Windows NT 10.0; Win64; x64; rv:132.0) Gecko/20100101 Firefox/132.0" version="24.8.4">
  <diagram name="Page-1" id="xMAfVtjmGuN8jAFTpXv1">
    <mxGraphModel dx="1024" dy="552" grid="1" gridSize="10" guides="1" tooltips="1" connect="1" arrows="1" fold="1" page="1" pageScale="1" pageWidth="850" pageHeight="1400" math="0" shadow="0">
      <root>
        <mxCell id="0" />
        <mxCell id="1" parent="0" />
        <mxCell id="C3oabb36LTWXgSbHVmGb-19" value="" style="edgeStyle=orthogonalEdgeStyle;rounded=0;orthogonalLoop=1;jettySize=auto;html=1;" edge="1" parent="1" source="C3oabb36LTWXgSbHVmGb-17" target="C3oabb36LTWXgSbHVmGb-18">
          <mxGeometry relative="1" as="geometry" />
        </mxCell>
        <mxCell id="C3oabb36LTWXgSbHVmGb-17" value="" style="ellipse;whiteSpace=wrap;html=1;aspect=fixed;fillColor=#050505;" vertex="1" parent="1">
          <mxGeometry x="405" y="60" width="40" height="40" as="geometry" />
        </mxCell>
        <mxCell id="C3oabb36LTWXgSbHVmGb-18" value="Vigilando" style="rounded=1;whiteSpace=wrap;html=1;" vertex="1" parent="1">
          <mxGeometry x="365" y="160" width="120" height="60" as="geometry" />
        </mxCell>
        <mxCell id="C3oabb36LTWXgSbHVmGb-20" value="Se crea al personaje / Energia al 100%" style="text;html=1;align=center;verticalAlign=middle;resizable=0;points=[];autosize=1;strokeColor=none;fillColor=none;" vertex="1" parent="1">
          <mxGeometry x="450" y="65" width="240" height="30" as="geometry" />
        </mxCell>
        <mxCell id="C3oabb36LTWXgSbHVmGb-21" value="Atacando" style="rounded=1;whiteSpace=wrap;html=1;" vertex="1" parent="1">
          <mxGeometry x="365" y="330" width="120" height="60" as="geometry" />
        </mxCell>
        <mxCell id="C3oabb36LTWXgSbHVmGb-23" value="" style="edgeStyle=orthogonalEdgeStyle;rounded=0;orthogonalLoop=1;jettySize=auto;html=1;" edge="1" parent="1">
          <mxGeometry relative="1" as="geometry">
            <mxPoint x="450" y="220" as="sourcePoint" />
            <mxPoint x="450" y="330" as="targetPoint" />
          </mxGeometry>
        </mxCell>
        <mxCell id="C3oabb36LTWXgSbHVmGb-24" value="" style="edgeStyle=orthogonalEdgeStyle;rounded=0;orthogonalLoop=1;jettySize=auto;html=1;" edge="1" parent="1">
          <mxGeometry relative="1" as="geometry">
            <mxPoint x="400" y="220" as="sourcePoint" />
            <mxPoint x="400" y="330" as="targetPoint" />
          </mxGeometry>
        </mxCell>
        <mxCell id="C3oabb36LTWXgSbHVmGb-25" value="&lt;div&gt;Enemigo avistado [Dentro&amp;nbsp;&lt;/div&gt;&lt;div&gt;del castillo] / Sacar espada e&lt;/div&gt;&lt;div&gt;iniciar combate&lt;br&gt;&lt;/div&gt;" style="text;html=1;align=left;verticalAlign=middle;resizable=0;points=[];autosize=1;strokeColor=none;fillColor=none;" vertex="1" parent="1">
          <mxGeometry x="450" y="230" width="180" height="60" as="geometry" />
        </mxCell>
        <mxCell id="C3oabb36LTWXgSbHVmGb-26" value="&lt;div&gt;Enemigo avistado [Fuera&lt;/div&gt;&lt;div&gt;del castillo] / Sacar arco e&lt;/div&gt;&lt;div&gt;iniciar combate&lt;br&gt;&lt;/div&gt;" style="text;html=1;align=right;verticalAlign=middle;resizable=0;points=[];autosize=1;strokeColor=none;fillColor=none;" vertex="1" parent="1">
          <mxGeometry x="240" y="230" width="160" height="60" as="geometry" />
        </mxCell>
      </root>
    </mxGraphModel>
  </diagram>
</mxfile>
